# xmcd
# 
# Track frame offsets:
#     150
#     18072
#     33922
#     52227
#     68891
#     90671
#     106341
#     122506
#     133206
#     156139
#     173173
#     191647
#     208055
#     233824
#     237116
#     266171
# 
# Disc length: 4440
# 
# Revision: 2
# Processed by: cddbd v1.5.2PL0 Copyright (c) Steve Scherf et al.
# Submitted via: BonkEnc v1.0
# 
DISCID=dc115610
DTITLE=Erste Allgemeine Verunsicherung - Platinum Kolläktschn 1
DYEAR=2006
DGENRE=
TTITLE0=Ding dong
TTITLE1=Märchenprinz
TTITLE2=Burli
TTITLE3=Morgen
TTITLE4=Küss die Hand Herr Kerkermeister
TTITLE5=Drei weiße Tauben
TTITLE6=Ba-Ba-Banküberfall
TTITLE7=Auf der Nepperbahn
TTITLE8=s'Muaterl
TTITLE9=Der Wein von Mykonos
TTITLE10=300 PS (Auto...)
TTITLE11=Go Karli Go
TTITLE12=Sandlerkönig Eberhard
TTITLE13=Johnny 1 - Fahrscheine
TTITLE14=Die Zeit
TTITLE15=Daten-CD
EXTD=
EXTT0=
EXTT1=
EXTT2=
EXTT3=
EXTT4=
EXTT5=
EXTT6=
EXTT7=
EXTT8=
EXTT9=
EXTT10=
EXTT11=
EXTT12=
EXTT13=
EXTT14=
EXTT15=
PLAYORDER=
